<svg width="48" height="48" viewBox="0 0 48 48" fill="none" xmlns="http://www.w3.org/2000/svg">
<path d="M6 26V16H42V26C42 33.5424 42 37.3138 39.6568 39.6568C37.3138 42 33.5424 42 26 42H22C14.4575 42 10.6863 42 8.34314 39.6568C6 37.3138 6 33.5424 6 26Z" stroke="#E31B54" stroke-width="3" stroke-linecap="round" stroke-linejoin="round"/>
<path d="M6 16L7.73076 12.1538C9.07308 9.17094 9.74422 7.6795 11.1046 6.83974C12.465 6 14.21 6 17.7 6H30.3C33.79 6 35.535 6 36.8954 6.83974C38.2558 7.6795 38.927 9.17094 40.2692 12.1538L42 16" stroke="#E31B54" stroke-width="3" stroke-linecap="round"/>
<path d="M24 16V6" stroke="#E31B54" stroke-width="3" stroke-linecap="round"/>
<path d="M17 27H28C30.2092 27 32 28.7908 32 31C32 33.2092 30.2092 35 28 35H26M20 23L16 27L20 31" stroke="#E31B54" stroke-width="3" stroke-linecap="round" stroke-linejoin="round"/>
</svg>
