<svg width="23" height="18" viewBox="0 0 23 18" fill="none" xmlns="http://www.w3.org/2000/svg">
<path d="M1.66602 4L9.83093 9.71544C10.4921 10.1783 10.8227 10.4097 11.1823 10.4993C11.4999 10.5785 11.8321 10.5785 12.1498 10.4993C12.5093 10.4097 12.8399 10.1783 13.5011 9.71544L21.666 4M6.46602 17H16.866C18.5462 17 19.3863 17 20.028 16.673C20.5925 16.3854 21.0514 15.9265 21.339 15.362C21.666 14.7202 21.666 13.8802 21.666 12.2V5.8C21.666 4.11984 21.666 3.27976 21.339 2.63803C21.0514 2.07354 20.5925 1.6146 20.028 1.32698C19.3863 1 18.5462 1 16.866 1H6.46602C4.78586 1 3.94578 1 3.30404 1.32698C2.73956 1.6146 2.28062 2.07354 1.993 2.63803C1.66602 3.27976 1.66602 4.11984 1.66602 5.8V12.2C1.66602 13.8802 1.66602 14.7202 1.993 15.362C2.28062 15.9265 2.73956 16.3854 3.30404 16.673C3.94578 17 4.78586 17 6.46602 17Z" stroke="#101828" stroke-width="2" stroke-linecap="round" stroke-linejoin="round"/>
</svg>
