<svg width="48" height="48" viewBox="0 0 48 48" fill="none" xmlns="http://www.w3.org/2000/svg">
<path d="M39 35C39 37.7614 36.7614 40 34 40C31.2386 40 29 37.7614 29 35C29 32.2386 31.2386 30 34 30C36.7614 30 39 32.2386 39 35Z" stroke="#E31B54" stroke-width="3"/>
<path d="M19 35C19 37.7614 16.7614 40 14 40C11.2386 40 9 37.7614 9 35C9 32.2386 11.2386 30 14 30C16.7614 30 19 32.2386 19 35Z" stroke="#E31B54" stroke-width="3"/>
<path d="M29 35H19M39 35H40.5264C40.9662 35 41.1862 35 41.371 34.977C42.7338 34.8072 43.8072 33.7338 43.977 32.371C44 32.1862 44 31.9662 44 31.5264V26C44 18.8203 38.1798 13 31 13M30 31V14C30 11.1716 30 9.75736 29.1214 8.87868C28.2426 8 26.8284 8 24 8H10C7.17158 8 5.75736 8 4.87868 8.87868C4 9.75736 4 11.1716 4 14V30C4 31.8692 4 32.8038 4.40192 33.5C4.66522 33.956 5.04394 34.3348 5.5 34.598C6.19616 35 7.13076 35 9 35" stroke="#E31B54" stroke-width="3" stroke-linecap="round" stroke-linejoin="round"/>
<path d="M13 14V21.9996M21 14V21.9996" stroke="#E31B54" stroke-width="3" stroke-linecap="round" stroke-linejoin="round"/>
</svg>
