<svg width="23" height="22" viewBox="0 0 23 22" fill="none" xmlns="http://www.w3.org/2000/svg">
<path d="M9.66602 14L6.59076 17.1137C6.1618 17.548 5.94732 17.7652 5.76297 17.7805C5.60303 17.7938 5.44643 17.7295 5.34197 17.6076C5.22157 17.4672 5.22157 17.162 5.22157 16.5515V14.9916C5.22157 14.444 4.77309 14.0477 4.23122 13.9683V13.9683C2.91976 13.7762 1.88979 12.7463 1.69769 11.4348C1.66602 11.2186 1.66602 10.9605 1.66602 10.4444V5.8C1.66602 4.11984 1.66602 3.27976 1.993 2.63803C2.28062 2.07354 2.73956 1.6146 3.30404 1.32698C3.94578 1 4.78586 1 6.46602 1H13.866C15.5462 1 16.3863 1 17.028 1.32698C17.5925 1.6146 18.0514 2.07354 18.339 2.63803C18.666 3.27976 18.666 4.11984 18.666 5.8V10M18.666 21L16.4896 19.4869C16.1837 19.2742 16.0307 19.1678 15.8642 19.0924C15.7165 19.0255 15.5611 18.9768 15.4016 18.9474C15.2219 18.9143 15.0355 18.9143 14.6629 18.9143H12.866C11.7459 18.9143 11.1859 18.9143 10.758 18.6963C10.3817 18.5046 10.0757 18.1986 9.884 17.8223C9.66602 17.3944 9.66602 16.8344 9.66602 15.7143V13.2C9.66602 12.0799 9.66602 11.5198 9.884 11.092C10.0757 10.7157 10.3817 10.4097 10.758 10.218C11.1859 10 11.7459 10 12.866 10H18.466C19.5861 10 20.1462 10 20.574 10.218C20.9503 10.4097 21.2563 10.7157 21.448 11.092C21.666 11.5198 21.666 12.0799 21.666 13.2V15.9143C21.666 16.8462 21.666 17.3121 21.5138 17.6797C21.3108 18.1697 20.9214 18.5591 20.4314 18.762C20.0638 18.9143 19.5979 18.9143 18.666 18.9143V21Z" stroke="#101828" stroke-width="2" stroke-linecap="round" stroke-linejoin="round"/>
</svg>
