<svg width="60" height="48" viewBox="0 0 60 48" fill="none" xmlns="http://www.w3.org/2000/svg">
<path d="M3.33301 10.6667L25.1061 25.9079C26.8692 27.1421 27.7508 27.7592 28.7097 27.9982C29.5567 28.2094 30.4426 28.2094 31.2896 27.9982C32.2485 27.7592 33.1301 27.1421 34.8932 25.9079L56.6663 10.6667M16.133 45.3334H43.8663C48.3468 45.3334 50.587 45.3334 52.2983 44.4615C53.8036 43.6945 55.0274 42.4706 55.7944 40.9653C56.6663 39.254 56.6663 37.0138 56.6663 32.5334V15.4667C56.6663 10.9863 56.6663 8.74612 55.7944 7.03482C55.0274 5.52953 53.8036 4.30568 52.2983 3.5387C50.587 2.66675 48.3468 2.66675 43.8663 2.66675H16.133C11.6526 2.66675 9.41238 2.66675 7.70108 3.5387C6.19579 4.30568 4.97194 5.52953 4.20496 7.03482C3.33301 8.74612 3.33301 10.9863 3.33301 15.4667V32.5334C3.33301 37.0138 3.33301 39.254 4.20496 40.9653C4.97194 42.4706 6.19579 43.6945 7.70108 44.4615C9.41238 45.3334 11.6526 45.3334 16.133 45.3334Z" stroke="#E31B54" stroke-width="5.33333" stroke-linecap="round" stroke-linejoin="round"/>
</svg>
